<svg width="360" height="800" viewBox="0 0 360 800" fill="none" xmlns="http://www.w3.org/2000/svg">
<g clip-path="url(#clip0_38_13)">
<rect width="360" height="800" fill="white"/>
<circle cx="325" cy="539" r="139" fill="#F77F4B"/>
<circle cx="7.65432" cy="7.65432" r="7.65432" transform="matrix(1 0 0 -1 224.346 659.012)" fill="#757496"/>
<circle cx="7.65432" cy="7.65432" r="7.65432" transform="matrix(1 0 0 -1 247.691 659.012)" fill="#757496"/>
<circle cx="7.65432" cy="7.65432" r="7.65432" transform="matrix(1 0 0 -1 201 659.012)" fill="#757496"/>
<circle cx="7.65432" cy="7.65432" r="7.65432" transform="matrix(1 0 0 -1 193.346 424.309)" fill="#757496"/>
<circle cx="7.65432" cy="7.65432" r="7.65432" transform="matrix(1 0 0 -1 216.691 424.309)" fill="#757496"/>
<circle cx="7.65432" cy="7.65432" r="7.65432" transform="matrix(1 0 0 -1 170 424.309)" fill="#757496"/>
</g>
<defs>
<clipPath id="clip0_38_13">
<rect width="360" height="800" fill="white"/>
</clipPath>
</defs>
</svg>
